<?xml version="1.0" encoding="UTF-8"?>
<svg id="Layer_2" data-name="Layer 2" xmlns="http://www.w3.org/2000/svg" viewBox="0 0 164.54 42.69">
  <defs>
    <style>
      .cls-1 {
        fill: #ffffff;
      }
    </style>
  </defs>
  <g id="Isolation_Mode" data-name="Isolation Mode">
    <path class="cls-1" d="M12.94,38.99c-.55.63-1.23,1.12-2.04,1.48-.81.36-1.73.54-2.77.54-.91,0-1.75-.17-2.52-.49-.77-.33-1.44-.8-2-1.4-.57-.6-1-1.32-1.32-2.13-.31-.82-.47-1.71-.47-2.66s.15-1.82.46-2.64c.31-.82.75-1.52,1.32-2.12.57-.6,1.24-1.06,2-1.39.76-.33,1.6-.49,2.51-.49.99,0,1.89.18,2.69.53.8.35,1.48.85,2.03,1.47l1.2-1.2c-.74-.77-1.6-1.37-2.58-1.81-.98-.44-2.09-.66-3.33-.66-1.16,0-2.24.21-3.22.64-.98.42-1.84,1.01-2.58,1.77-.74.75-1.31,1.64-1.71,2.65-.4,1.01-.6,2.1-.6,3.26s.2,2.25.61,3.26c.41,1.01.98,1.9,1.72,2.67.74.77,1.6,1.37,2.59,1.79.99.42,2.07.64,3.23.64,1.24,0,2.37-.22,3.38-.66,1.01-.44,1.88-1.05,2.6-1.84l-1.2-1.2Z"/>
    <path class="cls-1" d="M28.16,42.45h1.88l-6.57-16.21h-1.32l-6.62,16.21h1.84l1.7-4.22h7.41l1.68,4.22ZM19.68,36.73l3.12-7.73,3.08,7.73h-6.2Z"/>
    <polygon class="cls-1" points="43.03 27.82 43.03 26.24 34.52 26.24 33.93 26.24 32.78 26.24 32.78 42.45 34.52 42.45 34.52 35.15 42.63 35.15 42.63 33.55 34.52 33.55 34.52 27.82 43.03 27.82"/>
    <polygon class="cls-1" points="47.86 40.87 47.86 34.91 56.06 34.91 56.06 33.38 47.86 33.38 47.86 27.82 56.67 27.82 56.67 26.24 47.86 26.24 47.27 26.24 46.11 26.24 46.11 42.45 47.27 42.45 47.86 42.45 56.81 42.45 56.81 40.87 47.86 40.87"/>
    <polygon class="cls-1" points="73.45 42.69 73.45 5.52 64.78 5.52 64.78 .6 78.79 .6 78.79 42.69 73.45 42.69"/>
    <path class="cls-1" d="M91.72,42.69l10.94-14.52c-.96.28-2.1.42-3.38.42-2.47,0-4.77-.62-6.85-1.83-2.08-1.21-3.75-2.9-4.99-5.02-1.23-2.12-1.86-4.52-1.86-7.15s.67-5.2,1.98-7.39c1.31-2.19,3.1-3.96,5.31-5.25,2.22-1.29,4.71-1.95,7.42-1.95s5.25.65,7.45,1.92c2.2,1.27,3.96,3.02,5.25,5.19,1.3,2.18,1.95,4.64,1.95,7.3,0,3.63-1.26,7.21-3.74,10.63l-13.12,17.65h-6.37ZM100.23,5.04c-1.69,0-3.26.43-4.65,1.27-1.4.85-2.53,2.01-3.36,3.44-.83,1.43-1.25,3.06-1.25,4.83s.42,3.34,1.25,4.77c.83,1.43,1.97,2.59,3.38,3.44,1.41.85,2.96,1.27,4.62,1.27,1.74,0,3.33-.42,4.74-1.25,1.41-.83,2.54-1.98,3.35-3.43.81-1.45,1.22-3.07,1.22-4.81s-.41-3.46-1.22-4.9c-.81-1.43-1.94-2.58-3.35-3.4-1.41-.83-3.01-1.25-4.74-1.25"/>
    <polygon class="cls-1" points="138.28 42.69 138.28 31.81 117.61 31.81 117.61 28.45 133.11 .6 139.19 .6 124.28 26.89 138.28 26.89 138.28 14.28 143.62 14.28 143.62 26.89 149.72 26.89 149.72 31.81 143.62 31.81 143.62 42.69 138.28 42.69"/>
    <polygon class="cls-1" points="159.2 42.69 159.2 5.52 150.53 5.52 150.53 .6 164.54 .6 164.54 42.69 159.2 42.69"/>
  </g>
</svg>