<?xml version="1.0" encoding="UTF-8"?>
<svg id="Layer_2" data-name="Layer 2" xmlns="http://www.w3.org/2000/svg" viewBox="0 0 158.19 41.68">
  <defs>
    <style>
      .cls-1 {
        fill: #dacab2;
      }
    </style>
  </defs>
  <g id="Default">
    <g>
      <polygon class="cls-1" points="77.11 41.68 37.3 41.68 53.3 0 61.06 0 77.11 41.68"/>
      <path class="cls-1" d="M98.36,0c3.19,0,5.95.54,8.29,1.63,2.33,1.09,4.24,2.58,5.72,4.47,1.48,1.89,2.58,4.1,3.3,6.63.72,2.53,1.08,5.23,1.08,8.11s-.36,5.58-1.08,8.11c-.72,2.53-1.82,4.74-3.3,6.63-1.48,1.89-3.39,3.38-5.72,4.47-2.33,1.09-5.1,1.63-8.29,1.63h-17.28V0h17.28Z"/>
      <polygon class="cls-1" points="158.19 41.68 118.38 41.68 134.38 0 142.14 0 158.19 41.68"/>
      <path class="cls-1" d="M17.28,0c3.19,0,5.95.54,8.29,1.63,2.33,1.09,4.24,2.58,5.72,4.47,1.48,1.89,2.58,4.1,3.3,6.63.72,2.53,1.08,5.23,1.08,8.11s-.36,5.58-1.08,8.11-1.82,4.74-3.3,6.63-3.39,3.38-5.72,4.47c-2.33,1.09-5.1,1.63-8.29,1.63H0V0h17.28Z"/>
    </g>
  </g>
</svg>